<svg width="15" height="15" fill="none" xmlns="http://www.w3.org/2000/svg"><path d="M14.22 11.57L11 8.642a.792.792 0 00-1.101.034l-1.895 1.949c-.456-.088-1.372-.373-2.316-1.315-.944-.944-1.23-1.863-1.314-2.316L6.32 5.1a.792.792 0 00.034-1.102L3.43.781a.792.792 0 00-1.1-.069L.61 2.186a.792.792 0 00-.23.513c-.01.198-.236 4.886 3.4 8.523 3.171 3.171 7.144 3.403 8.238 3.403.16 0 .258-.005.284-.006a.786.786 0 00.513-.23l1.472-1.72a.79.79 0 00-.067-1.1z" fill="#DCD7C0"/><path d="M14.22 11.57L11 8.642a.792.792 0 00-1.101.034l-1.895 1.949c-.456-.088-1.372-.373-2.316-1.315-.944-.944-1.23-1.863-1.314-2.316L6.32 5.1a.792.792 0 00.034-1.102L3.43.781a.792.792 0 00-1.1-.069L.61 2.186a.792.792 0 00-.23.513c-.01.198-.236 4.886 3.4 8.523 3.171 3.171 7.144 3.403 8.238 3.403.16 0 .258-.005.284-.006a.786.786 0 00.513-.23l1.472-1.72a.79.79 0 00-.067-1.1z" fill="url(#paint0_linear)"/><defs><linearGradient id="paint0_linear" x1="4.963" y1=".522" x2="9.869" y2="2.021" gradientUnits="userSpaceOnUse"><stop stop-color="#E0DEDE"/><stop offset=".984" stop-color="#A2A0A0"/></linearGradient></defs></svg>